<svg xmlns="http://www.w3.org/2000/svg" width="170" height="50" viewBox="0 0 170 50" fill="none"><g clip-path="url(#clip0_207_48)"><path d="M27.846 34.4074L24.3361 27.6896C23.6087 26.3038 22.7867 25.3363 21.8629 24.8126C21.5392 24.6816 21.19 24.5398 20.8008 24.4089L20.8372 24.3397C21.219 24.4437 21.608 24.519 22.0011 24.5652L27.5332 17.1419C27.9733 16.5635 27.7514 16.0507 26.9803 16.0507H24.5834C23.2668 16.0507 22.9613 16.1926 22.4012 16.9891L17.5201 23.6778H16.8327V17.171C16.8327 16.3199 16.5599 16.0398 15.7052 16.0398H13.4756C12.6245 16.0398 12.3445 16.3199 12.3445 17.171V34.4619C12.3445 35.313 12.6245 35.5931 13.4756 35.5931H15.7052C16.5599 35.5931 16.8327 35.313 16.8327 34.4619V27.9151C16.5381 27.7878 16.2071 27.6677 15.8579 27.5514L15.8979 27.4859C16.2228 27.5715 16.5518 27.6407 16.8836 27.6932H17.5528C19.095 27.6932 19.586 28.0569 20.2261 29.3445L22.8122 34.5747C23.2195 35.433 23.6378 35.5967 25.0672 35.5967H27.2458C28.0387 35.5931 28.257 35.0693 27.846 34.4074Z" fill="#161C34"></path><path d="M33.629 16.0398H31.3449C30.4938 16.0398 30.2537 16.3453 30.2537 17.1309V34.4837C30.2537 35.2766 30.5011 35.5749 31.3449 35.5749H33.629C34.4328 35.5749 34.7202 35.2694 34.7202 34.4837V17.1419C34.7347 16.3453 34.4328 16.0398 33.629 16.0398Z" fill="#161C34"></path><path d="M53.1277 16.0398H51.0837C50.2326 16.0398 49.9598 16.3199 49.9598 17.171V23.7505C49.9422 25.8082 50.239 27.8565 50.84 29.8246H50.6181C50.5927 29.7409 50.2326 28.6098 49.9307 27.8932C49.4915 26.8516 48.9672 25.848 48.3631 24.8926L42.8528 16.549C42.7348 16.3805 42.5755 16.2453 42.3901 16.1561C42.2048 16.0669 41.9997 16.0269 41.7944 16.0398H39.5103C38.6519 16.0398 38.3791 16.3199 38.3791 17.171V34.4619C38.3791 35.313 38.6519 35.5931 39.5103 35.5931H41.5434C42.3945 35.5931 42.6746 35.313 42.6746 34.4619V27.8823C42.6245 25.8067 42.3662 23.7414 41.9035 21.7174H42.0963C42.5931 23.5417 43.3724 25.277 44.4059 26.8603L49.7961 35.0693C49.9142 35.2466 50.0778 35.3888 50.2698 35.4809C50.4618 35.5731 50.6751 35.6118 50.8873 35.5931H53.1205C53.9679 35.5931 54.2116 35.313 54.2116 34.4619V17.171C54.2262 16.3199 53.9752 16.0398 53.1277 16.0398Z" fill="#161C34"></path><path d="M72.5064 24.5471H65.8468C64.9921 24.5471 64.7193 24.8271 64.7193 25.6782V27.384C64.7193 28.2424 64.9921 28.5152 65.8468 28.5152H69.073C69.5167 28.4825 70.015 28.4279 70.5678 28.337V28.4097C70.0876 28.5216 69.6197 28.6812 69.1712 28.8862V29.5045C69.1712 30.9084 67.7672 31.905 65.4831 31.905C63.0571 31.905 61.846 30.8139 61.846 28.6316V23.0086C61.846 20.8263 63.0535 19.7351 65.4831 19.7351C67.2689 19.7351 68.4292 20.3971 68.9529 21.7465C69.2548 22.5503 69.5822 22.6812 70.3787 22.4412L72.4991 21.6919C73.2484 21.4446 73.4666 20.9645 73.1938 20.2661C72.0687 17.1818 69.5009 15.6397 65.4904 15.6397C60.3365 15.6397 57.3686 18.4221 57.3686 23.0449V28.6097C57.3686 33.2326 60.3365 36.015 65.4904 36.015C68.0364 36.015 70.0332 35.4076 71.4917 34.171C72.1845 33.6012 72.738 32.8806 73.1099 32.0643C73.4818 31.248 73.6623 30.3575 73.6376 29.4608V25.6782C73.6376 24.8271 73.3648 24.5471 72.5064 24.5471Z" fill="#161C34"></path><path d="M96.286 25.4309V25.3218C97.5554 24.4416 98.1883 23.0922 98.1883 21.2445C98.1883 17.9456 95.9842 16.0434 92.3252 16.0434H84.5854C83.7343 16.0434 83.4542 16.3162 83.4542 17.1746V34.4656C83.4542 35.3166 83.7343 35.5894 84.5854 35.5894H92.4343C94.362 35.5894 95.9296 35.1202 97.1444 34.1637C97.7341 33.6828 98.2029 33.0704 98.513 32.3756C98.8232 31.6807 98.9661 30.9229 98.9303 30.1628C98.9303 27.7696 98.0501 26.1874 96.286 25.4309ZM87.0077 19.8042C87.3303 19.8874 87.6568 19.9541 87.9861 20.0043H91.6232C92.9726 20.0043 93.6346 20.6444 93.6346 21.881C93.6346 23.1177 92.9726 23.7542 91.6232 23.7542H87.9461V20.2371C87.6478 20.1134 87.3205 19.9861 86.9677 19.8733L87.0077 19.8042ZM92.1543 31.6431H87.9461V27.8932C87.6478 27.7696 87.3205 27.6423 86.9677 27.5295L87.0077 27.4677C87.3314 27.5514 87.6478 27.6132 87.9461 27.6605H92.1543C93.5364 27.6605 94.2202 28.3188 94.2202 29.6682C94.2202 31.0175 93.5364 31.6431 92.1543 31.6431Z" fill="#161C34"></path><path d="M114.239 31.4867H106.255V28.006C105.935 27.8678 105.583 27.7332 105.201 27.5986L105.237 27.5332C105.612 27.6341 105.994 27.7082 106.379 27.755H112.588C113.446 27.755 113.719 27.4786 113.719 26.6275V24.7689C113.719 23.9178 113.446 23.6778 112.588 23.6778H106.255V20.4044C105.935 20.2625 105.583 20.1316 105.201 19.997L105.237 19.9315C105.572 20.0202 105.912 20.0906 106.255 20.1425H113.966C114.817 20.1425 115.097 19.8952 115.097 19.0513V17.211C115.097 16.3526 114.817 16.0798 113.966 16.0798H102.898C102.047 16.0798 101.767 16.3526 101.767 17.211V34.5019C101.767 35.353 102.047 35.6258 102.898 35.6258H114.239C115.097 35.6258 115.37 35.353 115.37 34.5019V32.6543C115.37 31.8177 115.043 31.4867 114.239 31.4867Z" fill="#161C34"></path><path d="M133.599 34.411L130.759 28.9844C130.432 28.4097 130.239 28.1042 130.184 28.0205C132.305 27.0603 133.378 25.1581 133.378 22.3757C133.378 18.4076 130.875 16.0434 126.885 16.0434H119.266C118.414 16.0434 118.134 16.3162 118.134 17.1746V34.4656C118.134 35.3166 118.414 35.5894 119.266 35.5894H121.495C122.35 35.5894 122.623 35.3166 122.623 34.4656V28.9444C122.284 28.7916 121.895 28.6461 121.488 28.5006L121.531 28.4388C121.89 28.5351 122.254 28.6056 122.623 28.6498H123.754C125.321 28.6498 125.845 28.9844 126.482 30.2792L128.518 34.5201C128.929 35.3712 129.424 35.5894 130.832 35.5894H133.032C133.814 35.5894 134.01 35.0657 133.599 34.411ZM128.144 24.027C127.917 24.2402 127.648 24.4043 127.354 24.5088C127.061 24.6133 126.749 24.656 126.438 24.6344H122.612V20.4116C122.272 20.2662 121.894 20.1207 121.477 19.9752L121.521 19.9097C121.879 20.0082 122.243 20.0812 122.612 20.128H126.442C126.749 20.0868 127.061 20.1166 127.355 20.2149C127.649 20.3133 127.916 20.4776 128.137 20.6953C128.357 20.9129 128.525 21.1782 128.627 21.4708C128.729 21.7633 128.763 22.0754 128.726 22.383C128.744 22.6817 128.702 22.9811 128.603 23.2635C128.504 23.5459 128.349 23.8055 128.147 24.027H128.144Z" fill="#161C34"></path><path d="M151.942 34.411L149.09 28.9844C148.759 28.4097 148.566 28.1042 148.512 28.0205C150.632 27.0603 151.702 25.1581 151.702 22.3757C151.702 18.4076 149.199 16.0434 145.206 16.0434H137.568C136.709 16.0434 136.436 16.3162 136.436 17.1746V34.4656C136.436 35.3166 136.709 35.5894 137.568 35.5894H139.797C140.648 35.5894 140.921 35.3166 140.921 34.4656V28.908C140.605 28.7661 140.252 28.6316 139.87 28.5006L139.906 28.4388C140.265 28.5349 140.629 28.6054 140.997 28.6498H142.063C143.634 28.6498 144.158 28.9844 144.791 30.2792L146.824 34.5201C147.239 35.3712 147.737 35.5894 149.141 35.5894H151.323C152.16 35.5894 152.364 35.0657 151.942 34.411ZM146.486 24.027C146.258 24.2405 145.989 24.4047 145.695 24.5092C145.4 24.6137 145.088 24.6563 144.776 24.6344H140.95V20.368C140.634 20.2334 140.281 20.1025 139.899 19.9679L139.935 19.9024C140.27 19.9911 140.608 20.0615 140.95 20.1134H144.776C145.085 20.0928 145.395 20.1332 145.689 20.2324C145.982 20.3317 146.253 20.4877 146.486 20.6917C146.892 21.1526 147.098 21.7555 147.061 22.3684C147.083 22.6695 147.044 22.9719 146.945 23.2571C146.846 23.5424 146.69 23.8044 146.486 24.027Z" fill="#161C34"></path><path d="M169.211 16.0434H166.818C166.336 16.0229 165.854 16.0681 165.384 16.178C165.045 16.3764 164.776 16.675 164.613 17.0328L161.118 23.4487C160.969 23.7905 160.809 24.1761 160.66 24.5798L160.598 24.5434C160.742 24.0456 160.84 23.5354 160.889 23.0195L157.681 17.0437C157.533 16.6902 157.279 16.3915 156.954 16.1889C156.477 16.0809 155.987 16.0356 155.499 16.0544H152.953C152.149 16.0544 151.96 16.5454 152.374 17.1855L158.845 27.9514V34.4765C158.845 35.3276 159.118 35.6004 159.976 35.6004H162.184C163.035 35.6004 163.308 35.3276 163.308 34.4765V28.006L169.778 17.1855C170.186 16.5345 170.015 16.0434 169.211 16.0434Z" fill="#161C34"></path><path d="M40.776 38.2664H39.9504C39.2884 38.2664 39.1757 38.2882 38.7792 38.6992L38.2555 39.2484C35.4312 42.0747 31.8097 43.9691 27.8774 44.6771C23.945 45.3851 19.8902 44.8729 16.2575 43.2091C12.6248 41.5453 9.58828 38.8097 7.55571 35.3698C5.52313 31.9299 4.5919 27.9503 4.88708 23.9657C5.18226 19.981 6.68971 16.1821 9.20697 13.0792C11.7242 9.97634 15.1307 7.71806 18.9689 6.60773C22.8071 5.4974 26.8932 5.58818 30.6783 6.8679C34.4633 8.14761 37.7662 10.555 40.1431 13.7666C40.226 13.8622 40.342 13.9229 40.4677 13.9367C40.5935 13.9505 40.7198 13.9162 40.8214 13.8408C40.923 13.7654 40.9924 13.6544 41.0157 13.5301C41.039 13.4057 41.0144 13.2771 40.9469 13.1701C39.1649 10.7785 36.9291 8.7615 34.3674 7.23428C34.7311 6.20134 35.6658 3.57895 35.6731 3.53531C35.6934 3.44856 35.6962 3.35863 35.6814 3.27079C35.6665 3.18295 35.6342 3.09896 35.5864 3.02376C35.5387 2.94855 35.4764 2.88364 35.4032 2.83283C35.33 2.78202 35.2474 2.74633 35.1603 2.72786C34.9889 2.70726 34.8151 2.72976 34.6547 2.79333L31.8614 3.52076C31.6437 3.59873 31.4108 3.62489 31.1812 3.59714H31.1594L30.963 3.5244C30.8643 3.46039 30.7781 3.37906 30.7084 3.28434L29.0098 0.771077C28.945 0.657057 28.8578 0.557345 28.7534 0.477956C28.649 0.398568 28.5296 0.341153 28.4024 0.309164C28.2823 0.287102 28.1588 0.290939 28.0403 0.320419C27.9217 0.349898 27.8108 0.404342 27.715 0.48011L25.2054 2.23321C25.1187 2.29205 25.0187 2.3283 24.9144 2.33868C24.8845 2.34593 24.8534 2.34593 24.8235 2.33868C24.6208 2.30216 24.4342 2.20443 24.2888 2.05863L22.1793 0.48738C21.9781 0.290342 21.7377 0.137903 21.4737 0.0400076C21.3893 0.0150668 21.3005 0.00876028 21.2135 0.0215044C21.1265 0.0342486 21.0432 0.0657416 20.9695 0.11382C20.8959 0.161899 20.8335 0.225415 20.7868 0.299962C20.7401 0.374509 20.7101 0.458309 20.699 0.545576L20.6735 4.13543C16.8948 4.47928 13.2624 5.76426 10.1081 7.87304C6.95374 9.98182 4.37792 12.8472 2.61583 16.2076C0.85375 19.5679 -0.0384502 23.3161 0.0206971 27.11C0.0798445 30.9039 1.08846 34.6225 2.95444 37.9262C4.82042 41.23 7.48431 44.0137 10.7029 46.0231C13.9214 48.0326 17.5921 49.2037 21.3797 49.4296C25.1673 49.6555 28.9511 48.9289 32.3857 47.3163C35.8202 45.7036 38.7961 43.2563 41.0415 40.1977C41.0597 40.1722 41.6198 39.4448 41.7107 39.2957C41.929 38.9356 41.7944 38.2336 40.776 38.2664Z" fill="#405F9E"></path></g><defs><clipPath id="clip0_207_48"><rect width="170" height="49.4651" fill="white"></rect></clipPath></defs></svg>